<mxfile host="app.diagrams.net" modified="2023-02-22T12:18:02.497Z" agent="5.0 (Windows NT 10.0; Win64; x64) AppleWebKit/537.36 (KHTML, like Gecko) Chrome/106.0.0.0 Safari/537.36" etag="qqI379OU8oqyuSXHK5Us" version="20.8.22" type="github">
  <diagram name="Seite-1" id="G6BYVdzRIYJGMbFm3Kd0">
    <mxGraphModel dx="1050" dy="581" grid="1" gridSize="10" guides="1" tooltips="1" connect="1" arrows="1" fold="1" page="1" pageScale="1" pageWidth="827" pageHeight="1169" math="0" shadow="0">
      <root>
        <mxCell id="0" />
        <mxCell id="1" parent="0" />
        <mxCell id="gYue3sW4FeC9hepqLlTS-24" style="edgeStyle=orthogonalEdgeStyle;rounded=0;orthogonalLoop=1;jettySize=auto;html=1;fontSize=11;" parent="1" source="gYue3sW4FeC9hepqLlTS-1" target="gYue3sW4FeC9hepqLlTS-2" edge="1">
          <mxGeometry relative="1" as="geometry" />
        </mxCell>
        <mxCell id="gYue3sW4FeC9hepqLlTS-1" value="Web Content Accessibility Guidelines&lt;br&gt;&lt;b&gt;(WCAG)&lt;/b&gt;" style="rounded=0;whiteSpace=wrap;html=1;" parent="1" vertex="1">
          <mxGeometry x="240" y="40" width="160" height="80" as="geometry" />
        </mxCell>
        <mxCell id="gYue3sW4FeC9hepqLlTS-25" style="edgeStyle=orthogonalEdgeStyle;rounded=0;orthogonalLoop=1;jettySize=auto;html=1;entryX=0.5;entryY=0;entryDx=0;entryDy=0;fontSize=11;" parent="1" source="gYue3sW4FeC9hepqLlTS-2" target="gYue3sW4FeC9hepqLlTS-3" edge="1">
          <mxGeometry relative="1" as="geometry" />
        </mxCell>
        <mxCell id="gYue3sW4FeC9hepqLlTS-27" style="edgeStyle=orthogonalEdgeStyle;rounded=0;orthogonalLoop=1;jettySize=auto;html=1;entryX=0.5;entryY=0;entryDx=0;entryDy=0;fontSize=11;dashed=1;" parent="1" source="gYue3sW4FeC9hepqLlTS-2" target="gYue3sW4FeC9hepqLlTS-7" edge="1">
          <mxGeometry relative="1" as="geometry" />
        </mxCell>
        <mxCell id="gYue3sW4FeC9hepqLlTS-2" value="&lt;b&gt;WCAG 2.2&lt;/b&gt;&lt;br&gt;Stand: 25.01.2023" style="rounded=0;whiteSpace=wrap;html=1;" parent="1" vertex="1">
          <mxGeometry x="240" y="160" width="160" height="80" as="geometry" />
        </mxCell>
        <mxCell id="gYue3sW4FeC9hepqLlTS-26" style="edgeStyle=orthogonalEdgeStyle;rounded=0;orthogonalLoop=1;jettySize=auto;html=1;fontSize=11;" parent="1" source="gYue3sW4FeC9hepqLlTS-3" target="gYue3sW4FeC9hepqLlTS-4" edge="1">
          <mxGeometry relative="1" as="geometry" />
        </mxCell>
        <mxCell id="gYue3sW4FeC9hepqLlTS-28" style="edgeStyle=orthogonalEdgeStyle;rounded=0;orthogonalLoop=1;jettySize=auto;html=1;entryX=0;entryY=0.5;entryDx=0;entryDy=0;dashed=1;fontSize=11;" parent="1" source="gYue3sW4FeC9hepqLlTS-3" target="gYue3sW4FeC9hepqLlTS-7" edge="1">
          <mxGeometry relative="1" as="geometry" />
        </mxCell>
        <mxCell id="gYue3sW4FeC9hepqLlTS-3" value="&lt;b&gt;RICHTLINIE (EU) 2016/2102&lt;br&gt;&lt;/b&gt;des Europäischen Parlaments und des Rates&lt;br&gt;Stand: 26. Oktober 2016&amp;nbsp;" style="rounded=0;whiteSpace=wrap;html=1;" parent="1" vertex="1">
          <mxGeometry x="240" y="320" width="160" height="80" as="geometry" />
        </mxCell>
        <mxCell id="gYue3sW4FeC9hepqLlTS-30" style="edgeStyle=orthogonalEdgeStyle;rounded=0;orthogonalLoop=1;jettySize=auto;html=1;entryX=0.5;entryY=0;entryDx=0;entryDy=0;fontSize=11;" parent="1" source="gYue3sW4FeC9hepqLlTS-4" target="gYue3sW4FeC9hepqLlTS-5" edge="1">
          <mxGeometry relative="1" as="geometry">
            <Array as="points">
              <mxPoint x="200" y="480" />
              <mxPoint x="200" y="520" />
              <mxPoint x="120" y="520" />
            </Array>
          </mxGeometry>
        </mxCell>
        <mxCell id="gYue3sW4FeC9hepqLlTS-31" style="edgeStyle=orthogonalEdgeStyle;rounded=0;orthogonalLoop=1;jettySize=auto;html=1;entryX=0.5;entryY=0;entryDx=0;entryDy=0;fontSize=11;" parent="1" source="gYue3sW4FeC9hepqLlTS-4" target="gYue3sW4FeC9hepqLlTS-6" edge="1">
          <mxGeometry relative="1" as="geometry">
            <Array as="points">
              <mxPoint x="440" y="480" />
              <mxPoint x="440" y="520" />
              <mxPoint x="520" y="520" />
            </Array>
          </mxGeometry>
        </mxCell>
        <mxCell id="gYue3sW4FeC9hepqLlTS-4" value="Europäischen Norm &lt;br&gt;&lt;b&gt;(EN) 301 549 &lt;/b&gt;&lt;br&gt;(Abschnitt 9 Web)&lt;br&gt;Stand: 10/2021" style="rounded=0;whiteSpace=wrap;html=1;" parent="1" vertex="1">
          <mxGeometry x="240" y="440" width="160" height="80" as="geometry" />
        </mxCell>
        <mxCell id="gYue3sW4FeC9hepqLlTS-32" style="edgeStyle=orthogonalEdgeStyle;rounded=0;orthogonalLoop=1;jettySize=auto;html=1;entryX=0.5;entryY=0;entryDx=0;entryDy=0;fontSize=11;" parent="1" source="gYue3sW4FeC9hepqLlTS-5" target="gYue3sW4FeC9hepqLlTS-11" edge="1">
          <mxGeometry relative="1" as="geometry" />
        </mxCell>
        <mxCell id="gYue3sW4FeC9hepqLlTS-5" value="Barrierefreie-Informationstechnik-Verordnung &lt;br&gt;&lt;b&gt;BITV 2.0&lt;br&gt;&lt;/b&gt;&amp;nbsp;Stand: 25. Mai 2019" style="rounded=0;whiteSpace=wrap;html=1;" parent="1" vertex="1">
          <mxGeometry x="40" y="600" width="160" height="80" as="geometry" />
        </mxCell>
        <mxCell id="gYue3sW4FeC9hepqLlTS-33" style="edgeStyle=orthogonalEdgeStyle;rounded=0;orthogonalLoop=1;jettySize=auto;html=1;entryX=0.5;entryY=0;entryDx=0;entryDy=0;fontSize=11;" parent="1" source="gYue3sW4FeC9hepqLlTS-6" target="gYue3sW4FeC9hepqLlTS-12" edge="1">
          <mxGeometry relative="1" as="geometry" />
        </mxCell>
        <mxCell id="gYue3sW4FeC9hepqLlTS-6" value="Gesetz zur Gleichstellung von Menschen mit Behinderungen&lt;br&gt;&lt;b&gt;BGG&lt;/b&gt;&lt;br&gt;Stand: 07/2018" style="rounded=0;whiteSpace=wrap;html=1;" parent="1" vertex="1">
          <mxGeometry x="440" y="600" width="160" height="80" as="geometry" />
        </mxCell>
        <mxCell id="G6BYVdzRIYJGMbFm3Kd0-2" style="edgeStyle=orthogonalEdgeStyle;rounded=0;orthogonalLoop=1;jettySize=auto;html=1;entryX=0;entryY=0.5;entryDx=0;entryDy=0;dashed=1;" edge="1" parent="1" source="gYue3sW4FeC9hepqLlTS-7" target="gYue3sW4FeC9hepqLlTS-15">
          <mxGeometry relative="1" as="geometry" />
        </mxCell>
        <mxCell id="gYue3sW4FeC9hepqLlTS-7" value="&lt;b&gt;Richtlinie (EU) 2019/882&lt;/b&gt; des Europäischen Parlaments und des Rates Stand: 17. April 2019&lt;br&gt;&lt;b&gt;European Accessibility Act (EAA)&lt;/b&gt;" style="rounded=0;whiteSpace=wrap;html=1;" parent="1" vertex="1">
          <mxGeometry x="480" y="370" width="160" height="120" as="geometry" />
        </mxCell>
        <mxCell id="gYue3sW4FeC9hepqLlTS-8" value="" style="endArrow=none;dashed=1;html=1;rounded=0;" parent="1" edge="1">
          <mxGeometry width="50" height="50" relative="1" as="geometry">
            <mxPoint x="40" y="280" as="sourcePoint" />
            <mxPoint x="640" y="280" as="targetPoint" />
          </mxGeometry>
        </mxCell>
        <mxCell id="gYue3sW4FeC9hepqLlTS-9" value="" style="endArrow=none;dashed=1;html=1;rounded=0;" parent="1" edge="1">
          <mxGeometry width="50" height="50" relative="1" as="geometry">
            <mxPoint x="40" y="560" as="sourcePoint" />
            <mxPoint x="640" y="560" as="targetPoint" />
          </mxGeometry>
        </mxCell>
        <mxCell id="gYue3sW4FeC9hepqLlTS-10" value="" style="endArrow=none;dashed=1;html=1;rounded=0;" parent="1" edge="1">
          <mxGeometry width="50" height="50" relative="1" as="geometry">
            <mxPoint x="40" y="720" as="sourcePoint" />
            <mxPoint x="800" y="720" as="targetPoint" />
          </mxGeometry>
        </mxCell>
        <mxCell id="gYue3sW4FeC9hepqLlTS-34" style="edgeStyle=orthogonalEdgeStyle;rounded=0;orthogonalLoop=1;jettySize=auto;html=1;entryX=0;entryY=0.5;entryDx=0;entryDy=0;fontSize=11;" parent="1" source="gYue3sW4FeC9hepqLlTS-11" target="gYue3sW4FeC9hepqLlTS-12" edge="1">
          <mxGeometry relative="1" as="geometry" />
        </mxCell>
        <mxCell id="gYue3sW4FeC9hepqLlTS-11" value="Sächsisches Inklusionsgesetz&lt;br&gt;&lt;b&gt;SächsInklusG&amp;nbsp;&lt;/b&gt;&lt;br&gt;Stand: 2. Juli 2019" style="rounded=0;whiteSpace=wrap;html=1;" parent="1" vertex="1">
          <mxGeometry x="40" y="760" width="160" height="80" as="geometry" />
        </mxCell>
        <mxCell id="gYue3sW4FeC9hepqLlTS-35" style="edgeStyle=orthogonalEdgeStyle;rounded=0;orthogonalLoop=1;jettySize=auto;html=1;entryX=1;entryY=0.5;entryDx=0;entryDy=0;fontSize=11;" parent="1" source="gYue3sW4FeC9hepqLlTS-12" target="gYue3sW4FeC9hepqLlTS-11" edge="1">
          <mxGeometry relative="1" as="geometry" />
        </mxCell>
        <mxCell id="gYue3sW4FeC9hepqLlTS-12" value="Barrierefreie-Websites-Gesetz &lt;br&gt;&lt;b&gt;BfWebG&lt;/b&gt;&lt;br&gt;Stand: 10. April 2019" style="rounded=0;whiteSpace=wrap;html=1;" parent="1" vertex="1">
          <mxGeometry x="440" y="760" width="160" height="80" as="geometry" />
        </mxCell>
        <mxCell id="gYue3sW4FeC9hepqLlTS-13" value="&lt;b&gt;Zeitplan&lt;/b&gt;" style="swimlane;fontStyle=0;childLayout=stackLayout;horizontal=1;startSize=30;horizontalStack=0;resizeParent=1;resizeParentMax=0;resizeLast=0;collapsible=1;marginBottom=0;whiteSpace=wrap;html=1;" parent="1" vertex="1">
          <mxGeometry x="670" y="264" width="140" height="310" as="geometry" />
        </mxCell>
        <mxCell id="gYue3sW4FeC9hepqLlTS-14" value="&lt;p style=&quot;font-size: 11px;&quot; class=&quot;MsoNormal&quot;&gt;&lt;b style=&quot;&quot;&gt;&lt;font style=&quot;font-size: 11px;&quot;&gt;7. Juni 2019&lt;/font&gt;&lt;/b&gt;&lt;/p&gt;&lt;p style=&quot;font-size: 11px;&quot; class=&quot;MsoNormal&quot;&gt;&lt;font style=&quot;font-size: 11px;&quot;&gt;Die Europäische Union hat die Richtlinie 2019/882 formell verabschiedet&lt;/font&gt;&lt;/p&gt;" style="text;strokeColor=none;fillColor=none;align=left;verticalAlign=middle;spacingLeft=4;spacingRight=4;overflow=hidden;points=[[0,0.5],[1,0.5]];portConstraint=eastwest;rotatable=0;whiteSpace=wrap;html=1;" parent="gYue3sW4FeC9hepqLlTS-13" vertex="1">
          <mxGeometry y="30" width="140" height="80" as="geometry" />
        </mxCell>
        <mxCell id="gYue3sW4FeC9hepqLlTS-15" value="&lt;p style=&quot;font-size: 11px;&quot; class=&quot;MsoNormal&quot;&gt;&lt;b style=&quot;&quot;&gt;&lt;font style=&quot;font-size: 11px;&quot;&gt;28. Juni 2022&lt;/font&gt;&lt;/b&gt;&lt;/p&gt;&lt;p style=&quot;font-size: 11px;&quot; class=&quot;MsoNormal&quot;&gt;&lt;font style=&quot;font-size: 11px;&quot;&gt;Die Mitgliedsstaaten der EU müssen die Richtlinie 2019/882 in die jeweiliges nationales Recht überführt haben&lt;/font&gt;&lt;/p&gt;" style="text;strokeColor=none;fillColor=none;align=left;verticalAlign=middle;spacingLeft=4;spacingRight=4;overflow=hidden;points=[[0,0.5],[1,0.5]];portConstraint=eastwest;rotatable=0;whiteSpace=wrap;html=1;" parent="gYue3sW4FeC9hepqLlTS-13" vertex="1">
          <mxGeometry y="110" width="140" height="110" as="geometry" />
        </mxCell>
        <mxCell id="gYue3sW4FeC9hepqLlTS-16" value="&lt;p style=&quot;font-size: 11px;&quot; class=&quot;MsoNormal&quot;&gt;&lt;b style=&quot;&quot;&gt;&lt;font style=&quot;font-size: 11px;&quot;&gt;28. Juli 2025&lt;/font&gt;&lt;/b&gt;&lt;/p&gt;&lt;p style=&quot;font-size: 11px;&quot; class=&quot;MsoNormal&quot;&gt;&lt;font style=&quot;font-size: 11px;&quot;&gt;Spätestens bis zu diesem Datum müssen die nationalen Gesetze&lt;br&gt;Anwendung finden.&lt;/font&gt;&lt;/p&gt;" style="text;strokeColor=none;fillColor=none;align=left;verticalAlign=middle;spacingLeft=4;spacingRight=4;overflow=hidden;points=[[0,0.5],[1,0.5]];portConstraint=eastwest;rotatable=0;whiteSpace=wrap;html=1;" parent="gYue3sW4FeC9hepqLlTS-13" vertex="1">
          <mxGeometry y="220" width="140" height="90" as="geometry" />
        </mxCell>
        <mxCell id="gYue3sW4FeC9hepqLlTS-21" value="" style="endArrow=none;dashed=1;html=1;rounded=0;fontSize=11;" parent="1" edge="1">
          <mxGeometry width="50" height="50" relative="1" as="geometry">
            <mxPoint x="640" y="600" as="sourcePoint" />
            <mxPoint x="640" y="560" as="targetPoint" />
          </mxGeometry>
        </mxCell>
        <mxCell id="gYue3sW4FeC9hepqLlTS-22" value="" style="endArrow=none;dashed=1;html=1;rounded=0;fontSize=11;" parent="1" edge="1">
          <mxGeometry width="50" height="50" relative="1" as="geometry">
            <mxPoint x="640" y="600" as="sourcePoint" />
            <mxPoint x="800" y="600" as="targetPoint" />
          </mxGeometry>
        </mxCell>
        <mxCell id="gYue3sW4FeC9hepqLlTS-23" value="" style="endArrow=none;dashed=1;html=1;rounded=0;fontSize=11;" parent="1" edge="1">
          <mxGeometry width="50" height="50" relative="1" as="geometry">
            <mxPoint x="640" y="240" as="sourcePoint" />
            <mxPoint x="800" y="240" as="targetPoint" />
          </mxGeometry>
        </mxCell>
        <mxCell id="gYue3sW4FeC9hepqLlTS-36" value="&lt;b&gt;&lt;font style=&quot;font-size: 13px; background-color: rgb(204, 255, 204);&quot;&gt;International&lt;/font&gt;&lt;/b&gt;" style="text;html=1;align=center;verticalAlign=middle;resizable=0;points=[];autosize=1;strokeColor=none;fillColor=none;fontSize=11;rotation=-90;" parent="1" vertex="1">
          <mxGeometry x="-30" y="130" width="100" height="30" as="geometry" />
        </mxCell>
        <mxCell id="gYue3sW4FeC9hepqLlTS-37" value="&lt;b&gt;&lt;font style=&quot;font-size: 13px; background-color: rgb(153, 204, 255);&quot;&gt;EU-Weit&lt;/font&gt;&lt;/b&gt;" style="text;html=1;align=center;verticalAlign=middle;resizable=0;points=[];autosize=1;strokeColor=none;fillColor=none;fontSize=11;rotation=-90;" parent="1" vertex="1">
          <mxGeometry x="-15" y="380" width="70" height="30" as="geometry" />
        </mxCell>
        <mxCell id="gYue3sW4FeC9hepqLlTS-38" value="&lt;b&gt;&lt;font style=&quot;font-size: 13px; background-color: rgb(255, 255, 153);&quot;&gt;Bundesweit&lt;/font&gt;&lt;/b&gt;" style="text;html=1;align=center;verticalAlign=middle;resizable=0;points=[];autosize=1;strokeColor=none;fillColor=none;fontSize=11;rotation=-90;" parent="1" vertex="1">
          <mxGeometry x="-30" y="625" width="100" height="30" as="geometry" />
        </mxCell>
        <mxCell id="gYue3sW4FeC9hepqLlTS-39" value="&lt;b&gt;&lt;font style=&quot;font-size: 13px;&quot;&gt;&lt;span style=&quot;background-color: rgb(255, 153, 153);&quot;&gt;Landesweit&lt;/span&gt;&lt;br&gt;&lt;/font&gt;&lt;/b&gt;" style="text;html=1;align=center;verticalAlign=middle;resizable=0;points=[];autosize=1;strokeColor=none;fillColor=none;fontSize=11;rotation=-90;" parent="1" vertex="1">
          <mxGeometry x="-25" y="785" width="90" height="30" as="geometry" />
        </mxCell>
        <mxCell id="G6BYVdzRIYJGMbFm3Kd0-1" value="" style="endArrow=none;dashed=1;html=1;rounded=0;" edge="1" parent="1">
          <mxGeometry width="50" height="50" relative="1" as="geometry">
            <mxPoint x="640" y="280" as="sourcePoint" />
            <mxPoint x="640" y="240" as="targetPoint" />
          </mxGeometry>
        </mxCell>
        <mxCell id="G6BYVdzRIYJGMbFm3Kd0-5" style="edgeStyle=orthogonalEdgeStyle;rounded=0;orthogonalLoop=1;jettySize=auto;html=1;entryX=1;entryY=0.5;entryDx=0;entryDy=0;" edge="1" parent="1" source="G6BYVdzRIYJGMbFm3Kd0-3" target="gYue3sW4FeC9hepqLlTS-11">
          <mxGeometry relative="1" as="geometry">
            <Array as="points">
              <mxPoint x="320" y="800" />
            </Array>
          </mxGeometry>
        </mxCell>
        <mxCell id="G6BYVdzRIYJGMbFm3Kd0-3" value="&lt;b&gt;ISO 9241-11&lt;/b&gt;&lt;br&gt;Ergonomie der Mensch-System-Interaktion Gebrauchstauglichkeit&lt;br&gt;Stand: 11/2018" style="rounded=0;whiteSpace=wrap;html=1;" vertex="1" parent="1">
          <mxGeometry x="240" y="600" width="160" height="80" as="geometry" />
        </mxCell>
      </root>
    </mxGraphModel>
  </diagram>
</mxfile>
